<svg width="12" height="12" viewBox="0 0 12 12" fill="none" xmlns="http://www.w3.org/2000/svg">
<g clip-path="url(#clip0_1159_11293)">
<path d="M6.09019 0.297852C4.03447 0.297852 2.36206 1.97051 2.36206 4.02628C2.36206 6.00513 5.74465 10.6284 5.88868 10.8242L6.0231 11.0071C6.03882 11.0286 6.06385 11.0412 6.09019 11.0412C6.11693 11.0412 6.1418 11.0286 6.15768 11.0071L6.29202 10.8242C6.43613 10.6284 9.81864 6.00513 9.81864 4.02628C9.81864 1.97051 8.14595 0.297852 6.09019 0.297852ZM6.09019 2.69076C6.82676 2.69076 7.4257 3.28974 7.4257 4.02628C7.4257 4.76244 6.82673 5.36179 6.09019 5.36179C5.35405 5.36179 4.75467 4.76244 4.75467 4.02628C4.75467 3.28974 5.35403 2.69076 6.09019 2.69076Z" fill="#FF0000"/>
</g>
<defs>
<clipPath id="clip0_1159_11293">
<rect width="10.7434" height="10.7434" fill="white" transform="translate(0.71875 0.297852)"/>
</clipPath>
</defs>
</svg>
